<svg width="89" height="89" viewBox="0 0 89 89" fill="none" xmlns="http://www.w3.org/2000/svg">
<path d="M79.0298 37.6581L73.9568 22.4391C73.2209 20.2233 71.8054 18.2958 69.9115 16.9304C68.0175 15.565 65.7414 14.8312 63.4066 14.8333H29.594C27.2592 14.8312 24.9831 15.565 23.0892 16.9304C21.1952 18.2958 19.7797 20.2233 19.0438 22.4391L13.9708 37.6581C12.6218 38.2226 11.4698 39.1732 10.6595 40.3906C9.84928 41.6079 9.41699 43.0376 9.41699 44.5V63.0416C9.41699 65.7784 10.9152 68.1443 13.1253 69.4311V77.875C13.1253 78.8585 13.516 79.8017 14.2115 80.4972C14.9069 81.1926 15.8501 81.5833 16.8337 81.5833H20.542C21.5255 81.5833 22.4687 81.1926 23.1642 80.4972C23.8596 79.8017 24.2503 78.8585 24.2503 77.875V70.4583H68.7503V77.875C68.7503 78.8585 69.141 79.8017 69.8365 80.4972C70.5319 81.1926 71.4752 81.5833 72.4587 81.5833H76.167C77.1505 81.5833 78.0937 81.1926 78.7892 80.4972C79.4846 79.8017 79.8753 78.8585 79.8753 77.875V69.4311C81.0004 68.7859 81.9356 67.8556 82.5866 66.7338C83.2376 65.6121 83.5815 64.3386 83.5837 63.0416V44.5C83.5837 43.0376 83.1514 41.6079 82.3411 40.3906C81.5309 39.1732 80.3788 38.2226 79.0298 37.6581ZM29.594 22.25H63.4029C65.0012 22.25 66.4178 23.2661 66.9221 24.7865L71.0235 37.0833H21.9771L26.0748 24.7865C26.3209 24.0478 26.7932 23.4052 27.4248 22.95C28.0565 22.4947 28.8154 22.2498 29.594 22.25V22.25ZM22.3962 59.3333C21.6654 59.3331 20.9419 59.1889 20.2669 58.909C19.5919 58.6292 18.9786 58.2191 18.4621 57.7022C17.9456 57.1854 17.5359 56.5718 17.2565 55.8966C16.9771 55.2214 16.8334 54.4978 16.8337 53.7671C16.8339 53.0364 16.9781 52.3129 17.2579 51.6379C17.5378 50.9629 17.9479 50.3496 18.4647 49.8331C18.9816 49.3165 19.5951 48.9069 20.2703 48.6275C20.9455 48.348 21.6691 48.2044 22.3999 48.2046C23.8756 48.2051 25.2907 48.7918 26.3339 49.8357C27.3771 50.8795 27.9629 52.2951 27.9624 53.7708C27.9619 55.2466 27.3752 56.6617 26.3313 57.7049C25.2874 58.748 23.8719 59.3338 22.3962 59.3333V59.3333ZM70.6045 59.3333C69.8738 59.3331 69.1503 59.1889 68.4752 58.909C67.8002 58.6292 67.187 58.2191 66.6704 57.7022C66.1539 57.1854 65.7443 56.5718 65.4648 55.8966C65.1854 55.2214 65.0418 54.4978 65.042 53.7671C65.0422 53.0364 65.1864 52.3129 65.4663 51.6379C65.7461 50.9629 66.1562 50.3496 66.6731 49.8331C67.1899 49.3165 67.8035 48.9069 68.4787 48.6275C69.1539 48.348 69.8775 48.2044 70.6082 48.2046C72.084 48.2051 73.4991 48.7918 74.5423 49.8357C75.5854 50.8795 76.1712 52.2951 76.1707 53.7708C76.1702 55.2466 75.5835 56.6617 74.5396 57.7049C73.4958 58.748 72.0803 59.3338 70.6045 59.3333V59.3333Z" fill="white"/>
</svg>
