<svg width="89" height="89" viewBox="0 0 89 89" fill="none" xmlns="http://www.w3.org/2000/svg">
<path d="M57.8001 41.4592L59.2834 39.9758C61.6073 37.6643 62.9181 34.5245 62.9273 31.2468C62.9366 27.969 61.6437 24.8218 59.3329 22.4972L46.2548 9.49333C43.9368 7.17598 40.7932 5.87417 37.5155 5.87417C34.2378 5.87417 31.0942 7.17598 28.7762 9.49333L7.6387 30.6308C5.32135 32.9489 4.01953 36.0924 4.01953 39.3701C4.01953 42.6479 5.32135 45.7914 7.6387 48.1094L20.6426 61.1133C22.9606 63.4307 26.1042 64.7325 29.3819 64.7325C32.6596 64.7325 35.8031 63.4307 38.1212 61.1133L39.2337 60.0008L44.4254 65.4397H52.9298V72.8564H62.0523V76.8861L69.2217 84.0556H84.0551V67.8625L57.8001 41.4592ZM36.6379 25.1672L23.1643 38.6656C22.7011 39.126 22.0745 39.3845 21.4213 39.3845C20.7682 39.3845 20.1416 39.126 19.6784 38.6656L18.6895 37.6767C18.2291 37.2135 17.9706 36.5869 17.9706 35.9337C17.9706 35.2806 18.2291 34.654 18.6895 34.1908L32.1384 20.6678C32.6016 20.2073 33.2282 19.9489 33.8813 19.9489C34.5345 19.9489 35.161 20.2073 35.6242 20.6678L36.6131 21.6567C36.8465 21.8849 37.0323 22.157 37.16 22.4574C37.2876 22.7577 37.3545 23.0804 37.3568 23.4068C37.3591 23.7332 37.2968 24.0567 37.1734 24.3589C37.05 24.661 36.868 24.9358 36.6379 25.1672V25.1672ZM79.1106 79.1111H71.3479L66.972 74.76V67.8378H57.8742V60.4211H46.4773L42.7195 56.4408L54.3884 44.945L79.1106 69.9144V79.1111Z" fill="white"/>
</svg>
