<svg width="89" height="89" viewBox="0 0 89 89" fill="none" xmlns="http://www.w3.org/2000/svg">
<path d="M44.5 83.4375C34.1731 83.4375 24.2692 79.3352 16.967 72.033C9.66483 64.7308 5.5625 54.8269 5.5625 44.5C5.5625 34.1731 9.66483 24.2692 16.967 16.967C24.2692 9.66483 34.1731 5.5625 44.5 5.5625C54.8269 5.5625 64.7308 9.66483 72.033 16.967C79.3352 24.2692 83.4375 34.1731 83.4375 44.5C83.4375 54.8269 79.3352 64.7308 72.033 72.033C64.7308 79.3352 54.8269 83.4375 44.5 83.4375ZM44.5 89C56.3021 89 67.6209 84.3116 75.9663 75.9663C84.3116 67.6209 89 56.3021 89 44.5C89 32.6979 84.3116 21.3791 75.9663 13.0337C67.6209 4.68838 56.3021 0 44.5 0C32.6979 0 21.3791 4.68838 13.0337 13.0337C4.68838 21.3791 0 32.6979 0 44.5C0 56.3021 4.68838 67.6209 13.0337 75.9663C21.3791 84.3116 32.6979 89 44.5 89Z" fill="white"/>
<path d="M23.8339 53.2164C24.4727 52.8476 25.2318 52.7477 25.9443 52.9386C26.6568 53.1295 27.2643 53.5956 27.6331 54.2344C29.3414 57.1955 31.7997 59.6543 34.7605 61.3632C37.7213 63.0721 41.08 63.9708 44.4986 63.9687C47.9172 63.9708 51.2759 63.0721 54.2367 61.3632C57.1975 59.6543 59.6558 57.1955 61.3641 54.2344C61.5454 53.9155 61.7879 53.6357 62.0778 53.4109C62.3677 53.1862 62.6992 53.021 63.0532 52.9249C63.4071 52.8288 63.7766 52.8037 64.1404 52.851C64.5041 52.8983 64.8549 53.017 65.1725 53.2004C65.4902 53.3838 65.7684 53.6282 65.9912 53.9196C66.214 54.211 66.377 54.5435 66.4707 54.8981C66.5645 55.2527 66.5872 55.6224 66.5375 55.9858C66.4878 56.3492 66.3667 56.6992 66.1812 57.0156C63.9847 60.8223 60.8242 63.9833 57.0179 66.1804C53.2115 68.3775 48.8936 69.5332 44.4986 69.5312C40.1036 69.5332 35.7857 68.3775 31.9793 66.1804C28.1729 63.9833 25.0125 60.8223 22.816 57.0156C22.4472 56.3768 22.3472 55.6177 22.5381 54.9052C22.729 54.1927 23.1951 53.5853 23.8339 53.2164ZM38.9361 36.1562C38.9361 40.762 36.4441 44.5 33.3736 44.5C30.3031 44.5 27.8111 40.762 27.8111 36.1562C27.8111 31.5505 30.3031 27.8125 33.3736 27.8125C36.4441 27.8125 38.9361 31.5505 38.9361 36.1562ZM61.1861 36.1562C61.1861 40.762 58.6941 44.5 55.6236 44.5C52.5531 44.5 50.0611 40.762 50.0611 36.1562C50.0611 31.5505 52.5531 27.8125 55.6236 27.8125C58.6941 27.8125 61.1861 31.5505 61.1861 36.1562Z" fill="white"/>
</svg>
