<svg width="89" height="89" viewBox="0 0 89 89" fill="none" xmlns="http://www.w3.org/2000/svg">
<path d="M41.0756 11.4031C41.2842 11.4031 41.5449 11.5074 41.7709 11.8203C40.7627 10.3775 42.9008 11.0033 43.0225 9.63008C44.2393 8.72617 43.8047 8.13516 44.1523 8.10039L44.5348 7.7875C43.7873 8.06562 43.5266 8.11777 43.318 8.11777H42.9703C42.7096 8.11777 42.275 8.16992 41.2494 8.48281C38.9027 8.65664 37.2166 11.1945 36.417 11.2641C35.6 11.6986 35.6348 11.7855 35.826 11.7855C35.8781 11.7855 35.9477 11.7682 36.0172 11.7682C36.0867 11.7682 36.1389 11.7508 36.191 11.7508C36.3822 11.7508 36.3301 11.8377 35.2176 12.3592C35.4783 12.4287 33.2707 13.4021 33.2533 14.9318C33.1838 15.5229 33.4271 15.9227 33.827 15.9227C34.1746 15.9227 34.6092 15.6619 35.0785 15.0014C36.643 13.1936 39.9457 13.0197 41.3711 11.9246C40.4846 11.8551 40.6584 11.4031 41.0756 11.4031V11.4031ZM33.1316 12.0115C32.9752 12.0115 33.1838 11.8203 33.4098 11.6291C33.6531 11.4379 33.9312 11.2467 33.9312 11.2467L33.9139 11.2641C34.8525 10.899 34.2789 10.8121 34.783 10.5687H34.7482C34.6439 10.5687 34.8352 10.4297 35.009 10.2732C35.1828 10.1342 35.3393 9.97773 35.1828 9.97773C35.0959 9.97773 34.8699 10.0299 34.4875 10.1863C34.6092 10.0125 35.0785 9.89082 35.7391 9.52578C34.783 9.83867 34.0355 10.0299 33.9486 10.0299C33.8791 10.0299 34.2789 9.89082 35.4783 9.52578C35.5305 9.52578 35.5826 9.54316 35.6174 9.54316C35.7391 9.54316 35.7912 9.5084 35.7738 9.47363C35.7564 9.43887 35.6869 9.42148 35.5652 9.42148C33.8443 9.56055 32.558 10.6383 32.9404 10.7773C33.1664 10.7078 33.3229 10.673 33.4271 10.673C33.6531 10.673 33.5488 10.8643 33.0969 11.1424C33.3055 11.6291 29.6203 12.8807 29.2031 13.3326C29.4117 13.2109 29.5508 13.1762 29.6203 13.1762C29.8984 13.1762 29.5334 13.715 29.1684 13.9758C29.3943 14.1844 29.5682 14.2539 29.7072 14.2539C30.0723 14.2539 30.2287 13.7498 30.5416 13.5934C30.6111 13.7324 30.6807 13.802 30.7676 13.802C31.0631 13.802 31.4281 13.0719 31.7236 12.6895C31.8105 12.7764 31.9148 12.8459 32.0539 12.8459C32.332 12.8459 32.7492 12.6199 33.4098 11.9768C33.2707 11.9941 33.1664 12.0115 33.1316 12.0115V12.0115ZM29.1336 15.21C28.5078 15.5924 28.1775 15.7488 28.0385 15.7488C27.7777 15.7488 28.1254 15.2621 28.4383 14.758C28.7512 14.2713 29.0293 13.7846 28.6295 13.7846C28.4383 13.7846 28.0906 13.8889 27.5344 14.167C26.0221 15.1752 23.4668 17.9564 22.3369 17.9564H22.2326C24.0578 16.618 23.5189 13.9932 26.0742 13.3152C28.5947 11.8725 30.3156 12.3244 32.558 10.673C31.8975 11.0033 30.924 11.3684 30.698 11.3684C30.559 11.3684 30.7676 11.1945 31.6715 10.76C31.5846 10.7773 31.515 10.7947 31.4629 10.7947C30.8545 10.7947 35.4609 9.14336 35.6869 9.10859C33.7922 9.36934 30.7328 10.9512 30.3156 10.9512C30.2635 10.9512 30.2635 10.9338 30.2635 10.899C30.333 10.8469 30.333 10.8121 30.2635 10.8121C30.0375 10.8121 29.0988 11.125 28.1428 11.4379C27.2041 11.7508 26.248 12.0811 26.0395 12.0811C25.9699 12.0811 25.9699 12.0463 26.0742 11.9768C17.8695 16.6354 11.0207 24.4924 8.88262 33.8096C9.76914 35.8434 9.16074 39.7197 10.6209 40.8496C12.2896 42.2576 9.19551 46.3426 10.0125 48.8631C10.8469 53.4174 14.4451 56.5289 14.8275 61.1875C15.4881 64.3859 17.9043 68.2971 18.9125 70.3309C19.6773 71.0957 21.7807 73.3033 22.1457 73.3033C22.2848 73.3033 22.1979 72.973 21.6416 72.0865C21.2939 71.0957 19.2775 68.5057 20.251 68.5057C20.3031 68.5057 20.3553 68.5057 20.4248 68.523C19.2254 67.3063 23.0844 67.6365 20.39 65.9852C20.0771 65.6027 20.0076 65.4811 20.0771 65.4811C20.1641 65.4811 20.4074 65.6201 20.6855 65.7592C20.9811 65.8982 21.3287 66.0373 21.6068 66.0373C22.0414 66.0373 22.3369 65.7418 22.1631 64.6641C22.2326 64.6988 22.3021 64.6988 22.3543 64.6988C22.8063 64.6988 22.6498 63.8123 22.6846 62.9258C22.7193 62.0393 22.9453 61.1527 24.1621 61.1527C24.3012 61.1527 24.4576 61.1701 24.6141 61.1875C27.4301 59.6578 24.9791 55.4338 28.2123 53.8867C28.0906 50.3754 23.3799 50.2016 21.6068 48.7762C21.3113 48.95 21.0332 49.0021 20.7551 49.0021C20.4422 49.0021 20.1641 48.9326 19.9207 48.8457C19.6773 48.7762 19.4514 48.6893 19.2949 48.6893C19.2602 48.6893 19.2254 48.6893 19.1906 48.7066C22.2152 47.907 20.0076 43.7004 17.5045 43.7004H17.3307C17.1395 41.8752 16.2008 42.5705 16.0965 41.0582C15.94 41.1451 15.7836 41.1799 15.6271 41.1799C15.21 41.1799 14.8275 40.8844 14.4973 40.6063C14.167 40.3107 13.8889 40.0326 13.6455 40.0326C13.4543 40.0326 13.2805 40.2238 13.124 40.7801C13.2979 39.9283 13.2457 39.6502 13.0719 39.6502C12.898 39.6502 12.5852 39.9457 12.2375 40.2412C11.9072 40.5367 11.5248 40.8322 11.2293 40.8322H11.1424C9.10859 39.3895 11.1598 36.8342 10.082 34.8699C10.7773 34.1225 11.0555 32.8535 10.7426 32.8535C10.5861 32.8535 10.2732 33.1664 9.78652 34.0182C9.09121 32.2451 10.9338 28.2297 12.4982 28.0037C12.5504 28.0037 12.5852 27.9863 12.6373 27.9863C12.9154 27.9863 13.1936 28.1254 13.4369 28.4209C13.576 29.2379 13.2283 30.9588 13.3674 30.9588C13.4369 30.9588 13.576 30.6111 13.9236 29.7072C14.3756 27.6387 17.5393 26.1438 17.8695 24.8748C17.8869 24.8922 17.8869 24.8922 17.9043 24.8922C18.2693 24.8922 20.616 22.8236 21.6416 22.5977C22.0414 22.1979 22.3195 22.0588 22.5281 22.0588C22.7541 22.0588 22.8758 22.2326 22.9627 22.3891C23.0496 22.5629 23.1191 22.7193 23.2061 22.7193C23.2756 22.7193 23.3625 22.615 23.5189 22.3195C22.9801 21.2592 24.3707 20.251 23.9883 20.251C23.8492 20.251 23.432 20.39 22.5803 20.7377C22.4412 20.8072 22.3717 20.8246 22.3369 20.8246C22.2326 20.8246 22.6498 20.5465 23.2582 20.2684C23.8666 19.9902 24.6314 19.7121 25.2746 19.7121C25.5875 19.7121 25.8656 19.7816 26.0742 19.9555C28.7686 19.3123 27.291 18.4258 27.4301 18.4258H27.4648C28.2297 17.9738 28.0037 16.2703 29.1336 15.21V15.21ZM17.0873 22.3195C17.0525 22.3195 17.209 22.0936 17.7305 21.4504C18.8082 20.6508 19.6773 20.1119 18.6865 19.5904C19.1211 19.3992 19.5383 19.1732 19.9381 18.9299C19.9207 19.7816 19.208 21.8502 18.8256 21.8502C18.7387 21.8502 18.6518 21.7285 18.617 21.4678C18.843 21.068 18.8604 20.9115 18.7734 20.9115C18.6344 20.9115 18.2346 21.2592 17.8521 21.6242C17.4697 21.9545 17.1221 22.3195 17.0873 22.3195V22.3195ZM18.0781 22.7889C17.6088 22.7889 17.6957 22.4934 19.1385 22.1979C19.7643 22.1109 19.2775 22.1457 20.025 21.9719C19.2949 22.5629 18.4779 22.7889 18.0781 22.7889V22.7889ZM45.1084 21.0332C45.317 20.9984 45.4734 20.9984 45.5951 20.9984C46.0992 20.9984 45.8732 21.207 45.5777 21.4156C45.2822 21.6242 44.9172 21.8328 45.1258 21.8328C45.2475 21.8328 45.5777 21.7633 46.2557 21.5721C49.6801 21.3287 44.9172 18.4258 45.682 17.4523L45.4734 17.3828C44.0654 19.1732 46.4121 19.208 45.1084 21.0332V21.0332ZM43.683 21.1027C43.9264 21.1027 44.2393 20.8246 44.5695 20.0424C45.0215 19.5035 44.8303 19.434 44.3436 19.1732C43.0051 19.5209 43.1268 21.1027 43.683 21.1027ZM55.6771 26.6131C55.625 26.6131 55.5902 26.6305 55.5555 26.6479C55.6945 26.6826 55.8336 26.7174 55.9727 26.7174C55.8336 26.6479 55.7467 26.6131 55.6771 26.6131ZM79.0223 30.9414C79.3178 31.5846 79.4742 31.8453 79.4916 31.8453C79.6133 31.8453 77.3014 26.2133 76.3453 25.2051C71.3564 17.0004 63.1518 10.7252 53.7998 8.37852H53.7824C53.5391 8.37852 53.8172 8.5002 54.1475 8.62187C54.4777 8.74355 54.8775 8.86523 54.8775 8.86523C54.8775 8.86523 54.6168 8.77832 53.8172 8.55234C52.9307 8.2916 52.0268 8.10039 51.1055 8.03086C50.949 8.08301 54.9123 9.64746 57.5719 10.4645C56.6854 10.1863 55.7641 9.94297 55.5381 9.94297C55.3816 9.94297 55.5381 10.0473 56.1813 10.3254C55.399 10.0994 55.0688 9.99512 55.034 9.99512C54.9818 9.99512 56.077 10.3602 57.1025 10.7252C58.1455 11.0902 59.1363 11.4553 58.8582 11.4553C58.7887 11.4553 58.5975 11.4205 58.302 11.3684C59.1885 11.8551 59.5014 12.0463 59.4492 12.0463C59.3623 12.0463 58.2672 11.5248 57.1373 11.0033C56.0248 10.4818 54.8949 9.96035 54.7385 9.96035C54.6516 9.96035 54.8775 10.1342 55.6424 10.5861C56.6854 11.0381 57.7283 11.49 57.4328 11.49C57.2937 11.49 56.8939 11.4031 56.1117 11.1771C57.85 12.0637 54.8775 11.716 55.8857 12.9154C55.3295 12.3939 55.1035 12.2201 55.0514 12.2201C54.9992 12.2201 55.1383 12.4287 55.2773 12.6373C55.4164 12.8459 55.5207 13.0545 55.399 13.0545H55.3643C56.5811 14.3756 54.5125 13.1936 55.99 14.3756C54.8775 13.8715 52.9828 13.0371 53.8346 13.0371C54.0432 13.0371 54.443 13.0893 55.0687 13.2283C53.9389 11.9072 50.7404 11.8551 50.6709 11.6986C49.8713 11.7508 49.8539 12.3592 49.993 13.4717C49.9756 15.2273 48.2547 15.2621 48.4807 16.2703C48.4807 16.2529 48.498 16.2529 48.498 16.2529C48.5328 16.2529 48.5502 16.6006 48.6545 16.9656C48.7762 17.3133 48.9848 17.6783 49.4367 17.6783C49.6801 17.6783 49.993 17.574 50.3754 17.3133C50.9143 18.2867 51.401 18.6344 51.7834 18.6344C52.357 18.6344 52.7047 17.8521 52.6699 17.1395C52.0441 16.7918 51.2271 13.9062 52.1311 13.9062C52.2701 13.9062 52.4439 13.9758 52.6699 14.1322C51.2619 17.5914 58.2324 15.2795 54.2865 16.8613C55.173 18.026 53.7303 17.9738 54.1475 19.3818C53.4695 19.573 52.7221 19.7469 52.0615 19.7469C51.0881 19.7469 50.3406 19.3297 50.4275 17.8695C49.2107 18.5127 51.6443 20.6855 49.2281 20.6855H49.0891C47.9244 22.8236 43.5613 22.0936 46.9857 24.3533C47.177 25.3441 46.5512 25.518 45.7516 25.518C45.543 25.518 45.317 25.5006 45.091 25.4832C44.865 25.4658 44.6391 25.4658 44.4305 25.4658C43.5266 25.4658 42.8834 25.6918 43.4396 27.0998C43.0398 28.56 43.9785 29.2031 45.1258 29.2031C46.5164 29.2031 48.2199 28.2992 48.3416 26.8043C49.0891 25.6744 50.0451 25.2051 51.0359 25.2051C52.6004 25.2051 54.2518 26.3871 55.3295 27.8473C55.4164 27.9863 55.4859 28.0385 55.5207 28.0385C55.6076 28.0385 55.5207 27.6908 55.4859 27.3432C55.4512 27.065 55.4512 26.7869 55.5555 26.7C54.0084 26.2654 52.8264 24.3881 53.3479 24.3881C53.5217 24.3881 53.8867 24.5967 54.4777 25.1529H54.5646C55.5381 25.1529 56.3029 25.9178 56.8939 26.6826C57.5023 27.4475 57.9543 28.2123 58.3541 28.2123C58.5105 28.2123 58.667 28.0732 58.8061 27.7604C58.7365 27.6561 58.5627 27.3605 58.4758 27.065C58.3715 26.7 58.3715 26.335 58.8408 26.335C59.032 26.335 59.2928 26.4045 59.6578 26.5436C60.8398 26.2307 58.9104 23.1539 60.4748 23.1539C60.6312 23.1539 60.8225 23.1887 61.0658 23.2582C61.0484 23.7971 61.2918 23.9883 61.5178 23.9883C61.9697 23.9883 62.4217 23.3451 61.3266 23.1539C61.7437 22.7541 61.9871 22.5977 62.1609 22.5977C62.7693 22.5977 62.2826 24.6141 64.3859 24.6141C65.0986 26.3002 58.1977 24.7357 60.4053 27.9689C60.9094 28.334 61.5352 28.4035 62.1436 28.4035C62.3348 28.4035 62.5086 28.4035 62.6824 28.3861C62.8563 28.3861 63.0301 28.3687 63.1865 28.3687C64.2643 28.3687 65.0291 28.6295 64.5598 30.8545C63.9861 31.2717 63.343 31.4107 62.6824 31.4107C62.0914 31.4107 61.5004 31.3064 60.9268 31.2021C60.3531 31.0979 59.7969 30.9936 59.2928 30.9936C58.5105 30.9936 57.8848 31.2543 57.5023 32.1582C55.4686 31.3238 52.7916 31.2891 53.0523 28.7686C49.5063 29.2727 45.8037 29.0119 43.1963 31.1848C43.0398 34.3658 37.5816 35.3914 38.9027 39.007C37.3209 42.3445 40.8148 47.0205 44.3783 47.0205C44.5 47.0205 44.6391 47.0205 44.7607 47.0031C46.7076 46.9857 48.6719 46.1166 50.3928 46.1166C51.2793 46.1166 52.0789 46.3426 52.7742 47.0379C52.9307 47.0205 53.0697 47.0031 53.1914 47.0031C55.851 47.0031 52.3396 51.2271 55.5207 51.9398C58.4062 54.9297 53.7477 58.0064 56.0248 60.8746C56.2682 63.117 57.3807 64.9943 57.3807 67.1846C57.6762 67.2193 57.9543 67.2367 58.2498 67.2367C61.9176 67.2367 64.2121 64.0383 66.3676 61.6221C65.707 58.0064 71.4955 57.2937 69.5139 53.2436C68.5926 48.8109 73.877 46.1861 73.5814 41.7535C73.6336 41.1277 73.4598 40.9365 73.199 40.9365C72.9383 40.9365 72.5559 41.1277 72.1908 41.3016C71.8084 41.4928 71.3912 41.6666 71.0609 41.6666C70.6264 41.6666 70.2961 41.3711 70.2613 40.3977C67.7061 38.0162 66.5414 34.783 64.16 32.1582C67.2541 33.6531 69.0098 37.0254 70.4352 40.0848C70.5568 40.1195 70.6785 40.1369 70.8176 40.1369C73.3381 40.1369 76.8494 34.1051 73.0252 32.6449C72.8166 33.2186 72.5385 33.4271 72.2082 33.4271C71.6346 33.4271 70.974 32.7318 70.5047 32.0539C70.0354 31.3586 69.792 30.6633 70.0527 30.6633C70.2266 30.6633 70.609 30.9414 71.2695 31.6715C72.017 32.1408 72.7471 32.2625 73.5119 32.2625C74.2594 32.2625 75.0242 32.1408 75.8238 32.0713C76.832 32.4711 77.2666 33.7574 77.5795 33.7574C77.6316 33.7574 77.7012 33.7053 77.7533 33.5836C78.5529 35.4957 79.4742 38.9027 80.3086 39.824C79.874 36.9037 79.7697 33.8096 79.0223 30.9414V30.9414ZM69.3227 26.926C67.3584 26.4219 66.7152 23.9883 65.1682 22.5803C65.1508 22.1979 65.7244 22.2674 65.5853 21.6242C67.6713 22.2674 66.9934 22.9105 66.8021 23.0322C67.567 24.3012 69.7051 25.1703 69.3227 26.926ZM42.3271 13.6977C40.4324 14.2539 40.1717 13.6455 40.502 14.8102C40.641 14.9145 40.9018 14.9492 41.1625 14.9492C42.0838 14.9666 43.3354 14.4277 42.3271 13.6977ZM70.157 61.5873C72.6428 59.484 72.9557 56.9809 73.0773 54.443C71.9648 56.6158 68.6621 59.0146 70.157 61.5873ZM58.8408 27.6908C58.8234 27.7082 58.8234 27.7082 58.8234 27.7256C58.8408 27.7604 58.8582 27.7604 58.8582 27.7604C58.8582 27.7604 58.8582 27.743 58.8408 27.6908V27.6908ZM44.5 0C19.9207 0 0 19.9207 0 44.5C0 69.0793 19.9207 89 44.5 89C69.0793 89 89 69.0793 89 44.5C89 19.9207 69.0793 0 44.5 0ZM44.5 85.5756C21.8154 85.5756 3.42441 67.1846 3.42441 44.5C3.42441 21.8154 21.8154 3.42441 44.5 3.42441C67.1846 3.42441 85.5756 21.8154 85.5756 44.5C85.5756 67.1846 67.1846 85.5756 44.5 85.5756Z" fill="white"/>
</svg>
