<svg width="50" height="48" viewBox="0 0 50 48" fill="none" xmlns="http://www.w3.org/2000/svg">
<path d="M16.7321 14.9969L23.5571 1.475C23.6881 1.20298 23.893 0.973229 24.1482 0.811905C24.4035 0.650581 24.6989 0.564167 25.0008 0.5625C25.5727 0.5625 26.1446 0.865625 26.4539 1.475L33.2789 14.9969L48.5852 17.1719C48.9667 17.2319 49.3159 17.4216 49.5738 17.7091C49.8317 17.9966 49.9825 18.3642 50.0008 18.75C50.0226 19.0068 49.9862 19.2653 49.8942 19.5061C49.8022 19.7468 49.6571 19.9638 49.4696 20.1406L38.4602 30.6281L41.0539 45.4094C41.2977 46.7938 39.9289 47.8781 38.7227 47.2594L25.0008 40.2094L11.2852 47.2594C11.1417 47.3339 10.9879 47.3865 10.8289 47.4156C9.76019 47.6031 8.74144 46.6219 8.95394 45.4094L11.5477 30.6281L0.54144 20.1406C0.370333 19.9787 0.234326 19.7834 0.141863 19.5668C0.0494 19.3501 0.00245438 19.1168 0.00394046 18.8813C0.004103 18.5482 0.0960072 18.2217 0.269565 17.9375C0.392686 17.7315 0.560499 17.5557 0.760621 17.4232C0.960743 17.2907 1.18807 17.2048 1.42582 17.1719L16.7321 14.9969V14.9969ZM25.0008 36.5844C25.2531 36.5833 25.5018 36.6434 25.7258 36.7594L37.2446 42.6781L35.0758 30.3125C35.0246 30.0281 35.044 29.7355 35.1323 29.4603C35.2205 29.1852 35.375 28.9359 35.5821 28.7344L44.6664 20.0781L32.0039 18.2781C31.7417 18.2385 31.493 18.136 31.2792 17.9792C31.0653 17.8225 30.8926 17.6162 30.7758 17.3781L25.0039 5.94688L25.0008 5.95625V36.5813V36.5844Z" fill="white"/>
</svg>
